<svg width="712" height="295" viewBox="0 0 712 295" version="1.1" xmlns="http://www.w3.org/2000/svg" xmlns:xlink="http://www.w3.org/1999/xlink">
<title>hero-illustration</title>
<desc>Created using Figma</desc>
<g id="Canvas" transform="translate(-1300 320)">
<g id="hero-illustration">
<g id="mac">
<g id="itself">
<g id="stand">
<g id="Rectangle 19">
<use xlink:href="#path0_fill" transform="translate(1696.61 -92)" fill="#6D7273"/>
</g>
<g id="Rectangle 20">
<use xlink:href="#path1_fill" transform="translate(1679 -28.2944)" fill="#8C9394"/>
</g>
</g>
<g id="screen_border">
<use xlink:href="#path2_fill" transform="translate(1552 -320)" fill="#8C9394"/>
</g>
<g id="white_screen">
<use xlink:href="#path3_fill" transform="translate(1567 -305)" fill="#FFFFFF"/>
</g>
<g id="power">
<use xlink:href="#path4_fill" transform="translate(1737 -101)" fill="#6D7273"/>
</g>
</g>
<g id="screen_image">
<g id="bottom-squa">
<g id="Rectangle 18">
<use xlink:href="#path5_fill" transform="translate(1682.85 -129.811)" fill="#7285A1"/>
</g>
<g id="Rectangle 18">
<use xlink:href="#path6_fill" transform="translate(1705.36 -129.811)" fill="#FF7688"/>
</g>
<g id="Rectangle 18">
<use xlink:href="#path6_fill" transform="translate(1727.86 -129.811)" fill="#FFB845"/>
</g>
<g id="Rectangle 18">
<use xlink:href="#path5_fill" transform="translate(1750.36 -129.811)" fill="#7285A1"/>
</g>
<g id="Rectangle 18">
<use xlink:href="#path7_fill" transform="translate(1771.88 -129.811)" fill="#66C3FC"/>
</g>
<g id="Rectangle 18">
<use xlink:href="#path8_fill" transform="translate(1795.36 -129.811)" fill="#C4C4C4"/>
</g>
</g>
<g id="top-lines">
<g id="Rectangle 17">
<use xlink:href="#path9_fill" transform="translate(1609.48 -296)" fill="#C4C4C4"/>
</g>
<g id="Rectangle 17">
<use xlink:href="#path10_fill" transform="translate(1636.87 -296)" fill="#C4C4C4"/>
</g>
<g id="Rectangle 17">
<use xlink:href="#path11_fill" transform="translate(1704.38 -296)" fill="#C4C4C4"/>
</g>
<g id="Rectangle 17">
<use xlink:href="#path12_fill" transform="translate(1609.48 -285.844)" fill="#C4C4C4"/>
</g>
<g id="Rectangle 17">
<use xlink:href="#path13_fill" transform="translate(1709.27 -285.844)" fill="#C4C4C4"/>
</g>
<g id="Rectangle 17">
<use xlink:href="#path14_fill" transform="translate(1586 -275.688)" fill="#C4C4C4"/>
</g>
<g id="Rectangle 17">
<use xlink:href="#path15_fill" transform="translate(1627.09 -275.688)" fill="#C4C4C4"/>
</g>
<g id="Rectangle 18">
<use xlink:href="#path16_fill" transform="translate(1586 -296)" fill="#FF7688"/>
</g>
<g id="Rectangle 17">
<use xlink:href="#path17_fill" transform="translate(1686.77 -296)" fill="#C4C4C4"/>
</g>
<g id="Rectangle 17">
<use xlink:href="#path18_fill" transform="translate(1681.88 -285.844)" fill="#C4C4C4"/>
</g>
<g id="Rectangle 17">
<use xlink:href="#path19_fill" transform="translate(1659.37 -285.844)" fill="#C4C4C4"/>
</g>
</g>
<g id="graph">
<g id="graph-circle-lines">
<g id="Rectangle 16">
<use xlink:href="#path20_fill" transform="matrix(0.75192 0.659254 -0.620705 0.784044 1649.39 -229.921)" fill="#5E7393"/>
<use xlink:href="#path20_fill" transform="matrix(0.75192 0.659254 -0.620705 0.784044 1649.39 -229.921)" fill="#5E7393"/>
</g>
<g id="Rectangle 16">
<use xlink:href="#path20_fill" transform="matrix(0.377021 -0.926205 0.943951 0.330085 1710.73 -218.539)" fill="#5E7393"/>
<use xlink:href="#path20_fill" transform="matrix(0.377021 -0.926205 0.943951 0.330085 1710.73 -218.539)" fill="#5E7393"/>
</g>
<g id="Rectangle 16">
<use xlink:href="#path21_fill" transform="matrix(-0.563291 -0.826259 0.796962 -0.604029 1764.14 -195.561)" fill="#5E7393"/>
<use xlink:href="#path21_fill" transform="matrix(-0.563291 -0.826259 0.796962 -0.604029 1764.14 -195.561)" fill="#5E7393"/>
</g>
<g id="Rectangle 16">
<use xlink:href="#path21_fill" transform="matrix(0.486549 -0.873653 0.89696 0.442111 1768.09 -195.268)" fill="#5E7393"/>
<use xlink:href="#path21_fill" transform="matrix(0.486549 -0.873653 0.89696 0.442111 1768.09 -195.268)" fill="#5E7393"/>
</g>
<g id="Rectangle 16">
<use xlink:href="#path21_fill" transform="matrix(0.87836 0.478 -0.433337 0.901232 1802.26 -248.288)" fill="#5E7393"/>
<use xlink:href="#path21_fill" transform="matrix(0.87836 0.478 -0.433337 0.901232 1802.26 -248.288)" fill="#5E7393"/>
</g>
<g id="Rectangle 16">
<use xlink:href="#path21_fill" transform="matrix(0.512244 -0.85884 0.883454 0.468518 1848.49 -221.073)" fill="#5E7393"/>
<use xlink:href="#path21_fill" transform="matrix(0.512244 -0.85884 0.883454 0.468518 1848.49 -221.073)" fill="#5E7393"/>
</g>
<g id="Rectangle 16">
<use xlink:href="#path22_fill" transform="matrix(0.772269 0.635296 -0.595756 0.803165 1670.92 -207.064)" fill="#5E7393"/>
<use xlink:href="#path22_fill" transform="matrix(0.772269 0.635296 -0.595756 0.803165 1670.92 -207.064)" fill="#5E7393"/>
</g>
<g id="Rectangle 16">
<use xlink:href="#path23_fill" transform="matrix(-0.432516 0.901626 -0.922187 -0.386743 1735.31 -210.686)" fill="#5E7393"/>
<use xlink:href="#path23_fill" transform="matrix(-0.432516 0.901626 -0.922187 -0.386743 1735.31 -210.686)" fill="#5E7393"/>
</g>
<g id="Rectangle 16">
<use xlink:href="#path24_fill" transform="matrix(0.690507 -0.723326 0.757053 0.653353 1572.26 -167.449)" fill="#5E7393"/>
<use xlink:href="#path24_fill" transform="matrix(0.690507 -0.723326 0.757053 0.653353 1572.26 -167.449)" fill="#5E7393"/>
</g>
</g>
<g id="graph_circle_1">
<g id="outer">
<use xlink:href="#path25_fill" transform="translate(1628 -242)" fill="#C4C4C4"/>
</g>
<g id="inner">
<use xlink:href="#path26_fill" transform="translate(1638 -232)" fill="#FFFFFF"/>
</g>
</g>
<g id="graph_circle_big">
<g id="outer">
<use xlink:href="#path27_fill" transform="translate(1682 -201)" fill="#A2AAAB"/>
</g>
<g id="inner">
<use xlink:href="#path28_fill" transform="translate(1697.71 -185.286)" fill="#FFFFFF"/>
</g>
</g>
<g id="graph_circle_2">
<g id="outer">
<use xlink:href="#path25_fill" transform="translate(1718 -264)" fill="#42DDBF"/>
</g>
<g id="inner">
<use xlink:href="#path26_fill" transform="translate(1728 -254)" fill="#FFFFFF"/>
</g>
</g>
<g id="graph_circle_3">
<g id="outer">
<use xlink:href="#path25_fill" transform="translate(1758 -210)" fill="#A2AAAB"/>
</g>
<g id="inner">
<use xlink:href="#path26_fill" transform="translate(1768 -200)" fill="#FFFFFF"/>
</g>
</g>
<g id="graph_circle_4">
<g id="outer">
<use xlink:href="#path25_fill" transform="translate(1788 -248)" fill="#66C3FC"/>
</g>
<g id="inner">
<use xlink:href="#path26_fill" transform="translate(1798 -238)" fill="#FFFFFF"/>
</g>
</g>
<g id="graph_circle_5">
<g id="outer">
<use xlink:href="#path25_fill" transform="translate(1836 -230)" fill="#FF7688"/>
</g>
<g id="inner">
<use xlink:href="#path26_fill" transform="translate(1846 -220)" fill="#FFFFFF"/>
</g>
</g>
<g id="graph_circle_6">
<g id="outer">
<use xlink:href="#path25_fill" transform="translate(1868 -275)" fill="#FFB845"/>
</g>
<g id="inner">
<use xlink:href="#path26_fill" transform="translate(1878 -265)" fill="#FFFFFF"/>
</g>
</g>
</g>
<g id="Magnifier">
<g id="Subtract">
<use xlink:href="#path29_fill" transform="translate(1659.37 -223.062)" fill="#C4C4C4"/>
</g>
<g id="Vector 2">
<use xlink:href="#path30_fill" transform="translate(1728.84 -156.586)" fill="#C4C4C4"/>
</g>
</g>
</g>
</g>
<g id="tablet">
<g id="itself">
<g id="white_screen">
<use xlink:href="#path31_fill" transform="translate(1883.74 -199.614)" fill="#FFFFFF"/>
</g>
<g id="border">
<use xlink:href="#path32_fill" transform="translate(1872.12 -206.818)" fill="#6D7273"/>
</g>
<g id="burron">
<use xlink:href="#path33_fill" transform="translate(1937.55 -36.1951)" fill="#858B8C"/>
</g>
<g id="camera">
<use xlink:href="#path34_fill" transform="translate(1940.48 -201.46)" fill="#C4C4C4"/>
</g>
</g>
<g id="screen_and_diagrams">
<g id="bottom_section">
<g id="Rectangle 22">
<use xlink:href="#path35_fill" transform="translate(1910.15 -66.663)" fill="#C4C4C4"/>
</g>
<g id="Rectangle 21">
<use xlink:href="#path36_fill" transform="translate(1910.15 -87.8982)" fill="#C4C4C4"/>
</g>
<g id="Rectangle 21">
<use xlink:href="#path36_fill" transform="translate(1955.16 -87.8982)" fill="#FFB845"/>
</g>
<g id="Rectangle 21">
<use xlink:href="#path37_fill" transform="translate(1933.63 -87.8982)" fill="#FF7688"/>
</g>
<g id="Rectangle 21">
<use xlink:href="#path36_fill" transform="translate(1910.15 -87.8982)" fill="#C4C4C4"/>
</g>
<g id="Rectangle 21">
<use xlink:href="#path36_fill" transform="translate(1910.15 -87.8982)" fill="#66C3FC"/>
</g>
</g>
<g id="circle">
<g id="Ellipse 5">
<use xlink:href="#path38_fill" transform="translate(1905.26 -170.992)" fill="#FF7688" fill-opacity="0.5"/>
</g>
<g id="Vector 3">
<use xlink:href="#path39_fill" transform="translate(1916.02 -171.061)" fill="#7285A1"/>
</g>
<g id="Vector 4">
<use xlink:href="#path40_fill" transform="translate(1941.46 -163.606)" fill="#FFB845"/>
</g>
</g>
</g>
</g>
<g id="Notebook">
<g id="itself">
<g id="screen_white">
<use xlink:href="#path41_fill" transform="translate(1360 -185)" fill="#FFFFFF"/>
</g>
<g id="keyboard">
<use xlink:href="#path42_fill" transform="translate(1300 -38.9924)" fill="#8A9495"/>
</g>
<g id="blur">
<use xlink:href="#path43_fill" transform="translate(1457.44 -38.5381)" fill="#9BAAAB"/>
</g>
<g id="top_part">
<use xlink:href="#path44_fill" transform="translate(1344.16 -198.909)" fill="#6B7374"/>
</g>
<g id="camera">
<use xlink:href="#path45_fill" transform="translate(1479.52 -192.548)" fill="#C4C4C4"/>
</g>
</g>
<g id="screen_and_diagrams">
<g id="line">
<use xlink:href="#path46_fill" transform="translate(1387.73 -71.8867)" fill="#C0C0C0"/>
</g>
<g id="cols">
<g id="bot-col">
<g id="bottom-col">
<use xlink:href="#path47_fill" transform="translate(1551.24 -131.74)" fill="#DFF0ED"/>
</g>
<g id="bottom-col">
<use xlink:href="#path48_fill" transform="translate(1551.24 -121.913)" fill="#42DDBF"/>
</g>
</g>
<g id="bot-col">
<g id="bottom-col">
<use xlink:href="#path49_fill" transform="translate(1524.46 -131.74)" fill="#DFF0ED"/>
</g>
<g id="bottom-col">
<use xlink:href="#path50_fill" transform="translate(1524.46 -111.193)" fill="#42DDBF"/>
</g>
</g>
<g id="bot-col">
<g id="bottom-col">
<use xlink:href="#path49_fill" transform="translate(1497.69 -131.74)" fill="#DFF0ED"/>
</g>
<g id="bottom-col">
<use xlink:href="#path51_fill" transform="translate(1497.69 -102.26)" fill="#42DDBF"/>
</g>
</g>
<g id="bot-col">
<g id="bottom-col">
<use xlink:href="#path47_fill" transform="translate(1469.96 -131.74)" fill="#DFF0ED"/>
</g>
<g id="bottom-col">
<use xlink:href="#path52_fill" transform="translate(1469.96 -119.233)" fill="#42DDBF"/>
</g>
</g>
<g id="bot-col">
<g id="bottom-col">
<use xlink:href="#path49_fill" transform="translate(1443.19 -131.74)" fill="#DFF0ED"/>
</g>
<g id="bottom-col">
<use xlink:href="#path53_fill" transform="translate(1443.19 -100.473)" fill="#42DDBF"/>
</g>
</g>
<g id="bot-col">
<g id="bottom-col">
<use xlink:href="#path49_fill" transform="translate(1415.46 -131.74)" fill="#DFF0ED"/>
</g>
<g id="bottom-col">
<use xlink:href="#path54_fill" transform="translate(1415.46 -116.553)" fill="#42DDBF"/>
</g>
</g>
<g id="bot-col">
<g id="bottom-col">
<use xlink:href="#path49_fill" transform="translate(1387.73 -131.74)" fill="#DFF0ED"/>
</g>
<g id="bottom-col">
<use xlink:href="#path55_fill" transform="translate(1387.73 -107.62)" fill="#42DDBF"/>
</g>
</g>
</g>
<g id="top_two_sections">
<g id="Rectangle 3">
<use xlink:href="#path56_fill" transform="translate(1386.77 -167.473)" fill="#66C3FC"/>
</g>
<g id="Rectangle 3">
<use xlink:href="#path57_fill" transform="translate(1485.26 -167.473)" fill="#FFB845"/>
</g>
<g id="Rectangle 12">
<use xlink:href="#path58_fill" transform="translate(1507.25 -157.647)" fill="#C4C4C4"/>
</g>
<g id="Rectangle 13">
<use xlink:href="#path59_fill" transform="translate(1538.8 -157.647)" fill="#C4C4C4"/>
</g>
<g id="Rectangle 14">
<use xlink:href="#path60_fill" transform="translate(1555.06 -157.647)" fill="#C4C4C4"/>
</g>
<g id="Rectangle 9">
<use xlink:href="#path61_fill" transform="translate(1507.25 -167.473)" fill="#C4C4C4"/>
</g>
<g id="Rectangle 11">
<use xlink:href="#path62_fill" transform="translate(1560.8 -167.473)" fill="#C4C4C4"/>
</g>
<g id="Rectangle 10">
<use xlink:href="#path63_fill" transform="translate(1528.29 -167.473)" fill="#C4C4C4"/>
</g>
<g id="Rectangle 4">
<use xlink:href="#path64_fill" transform="translate(1409.72 -167.473)" fill="#C4C4C4"/>
</g>
<g id="Rectangle 5">
<use xlink:href="#path65_fill" transform="translate(1436.49 -167.473)" fill="#C4C4C4"/>
</g>
<g id="Rectangle 6">
<use xlink:href="#path64_fill" transform="translate(1452.75 -167.473)" fill="#C4C4C4"/>
</g>
<g id="Rectangle 7">
<use xlink:href="#path66_fill" transform="translate(1409.72 -157.647)" fill="#C4C4C4"/>
</g>
<g id="Rectangle 8">
<use xlink:href="#path67_fill" transform="translate(1430.76 -157.647)" fill="#C4C4C4"/>
</g>
</g>
</g>
</g>
</g>
</g>
<defs>
<path id="path0_fill" d="M 4.50485 0L 0 64.6289L 86.0926 64.6289L 81.5878 0L 4.50485 0Z"/>
<path id="path1_fill" d="M 0 0L 121.312 0L 121.312 2.76981L 0 2.76981L 0 0Z"/>
<path id="path2_fill" d="M 9 2.97669e-05L 366 0C 366 0 376 3.05176e-05 376 9.00003L 376 229L 0 229L 0 8C 2.34339e-05 2.95639e-05 9 2.97669e-05 9 2.97669e-05Z"/>
<path id="path3_fill" d="M 0 0L 345.349 0L 345.349 200.35L 0 200.35L 0 0Z"/>
<path id="path4_fill" d="M 6.84828 3.23144C 6.84828 5.01612 5.31524 6.46289 3.42414 6.46289C 1.53304 6.46289 0 5.01612 0 3.23144C 0 1.44677 1.53304 0 3.42414 0C 5.31524 0 6.84828 1.44677 6.84828 3.23144Z"/>
<path id="path5_fill" d="M 0 0L 17.6099 0L 17.6099 15.6956L 0 15.6956L 0 0Z"/>
<path id="path6_fill" d="M 0 0L 17.6099 0L 17.6099 15.6956L 0 15.6956L 0 0Z"/>
<path id="path7_fill" d="M 0 0L 17.6099 0L 17.6099 15.6956L 0 15.6956L 0 0Z"/>
<path id="path8_fill" d="M 0 0L 17.6099 0L 17.6099 15.6956L 0 15.6956L 0 0Z"/>
<path id="path9_fill" d="M 0 0L 22.5015 0L 22.5015 6.46289L 0 6.46289L 0 0Z"/>
<path id="path10_fill" d="M 0 0L 45.003 0L 45.003 6.46289L 0 6.46289L 0 0Z"/>
<path id="path11_fill" d="M 0 0L 61.6345 0L 61.6345 6.46289L 0 6.46289L 0 0Z"/>
<path id="path12_fill" d="M 0 0L 44.0247 0L 44.0247 6.46289L 0 6.46289L 0 0Z"/>
<path id="path13_fill" d="M 0 0L 44.0247 0L 44.0247 6.46289L 0 6.46289L 0 0Z"/>
<path id="path14_fill" d="M 0 0L 34.2414 0L 34.2414 6.46289L 0 6.46289L 0 0Z"/>
<path id="path15_fill" d="M 0 0L 29.3498 0L 29.3498 6.46289L 0 6.46289L 0 0Z"/>
<path id="path16_fill" d="M 0 0L 18.5882 0L 18.5882 16.6189L 0 16.6189L 0 0Z"/>
<path id="path17_fill" d="M 0 0L 12.7182 0L 12.7182 6.46289L 0 6.46289L 0 0Z"/>
<path id="path18_fill" d="M 0 0L 22.5015 0L 22.5015 6.46289L 0 6.46289L 0 0Z"/>
<path id="path19_fill" d="M 0 0L 17.6099 0L 17.6099 6.46289L 0 6.46289L 0 0Z"/>
<path id="path20_fill" d="M 0 0L 32.98 0L 32.98 10.9321L 0 10.9321L 0 0Z"/>
<path id="path21_fill" d="M 0 0L 59.2977 0L 59.2977 10.9321L 0 10.9321L 0 0Z"/>
<path id="path22_fill" d="M 0 0L 41.3409 0L 41.3409 19.3189L 3.99824 19.3189L 2.2766e-13 11.2852L 0 0Z"/>
<path id="path23_fill" d="M 0 0L 32.98 0L 32.98 19.3189L 0 19.3189L 0 0Z"/>
<path id="path24_fill" d="M 0 0L 86.6056 0L 86.6056 10.9321L 0 10.9321L 0 0Z"/>
<path id="path25_fill" d="M 28 14C 28 21.732 21.732 28 14 28C 6.26801 28 0 21.732 0 14C 0 6.26801 6.26801 0 14 0C 21.732 0 28 6.26801 28 14Z"/>
<path id="path26_fill" d="M 8 4C 8 6.20914 6.20914 8 4 8C 1.79086 8 0 6.20914 0 4C 0 1.79086 1.79086 0 4 0C 6.20914 0 8 1.79086 8 4Z"/>
<path id="path27_fill" d="M 44 22C 44 34.1503 34.1503 44 22 44C 9.84974 44 0 34.1503 0 22C 0 9.84974 9.84974 0 22 0C 34.1503 0 44 9.84974 44 22Z"/>
<path id="path28_fill" d="M 12.5714 6.28571C 12.5714 9.75722 9.75722 12.5714 6.28571 12.5714C 2.81421 12.5714 0 9.75722 0 6.28571C 0 2.81421 2.81421 0 6.28571 0C 9.75722 0 12.5714 2.81421 12.5714 6.28571Z"/>
<path id="path29_fill" fill-rule="evenodd" d="M 44.5138 84.0175C 69.098 84.0175 89.0277 65.2096 89.0277 42.0088C 89.0277 18.808 69.098 0 44.5138 0C 19.9296 0 0 18.808 0 42.0088C 0 65.2096 19.9296 84.0175 44.5138 84.0175ZM 44.5138 79.4012C 66.3966 79.4012 84.1359 62.6601 84.1359 42.0088C 84.1359 21.3575 66.3966 4.61636 44.5138 4.61636C 22.6311 4.61636 4.8916 21.3575 4.8916 42.0088C 4.8916 62.6601 22.6311 79.4012 44.5138 79.4012Z"/>
<path id="path30_fill" d="M 63.7074 49.9742L 11.1914 0.642327C 10.8464 0.318177 10.2878 0.409401 10.0637 0.826489C 10.0264 0.89608 9.9778 0.959049 9.91998 1.01287L 9.00657 1.86317L 8.00584 2.79476L 6.50474 4.19214L 5.00365 5.58952L 3.55392 6.93909C 3.51972 6.97093 3.48333 7.00033 3.44501 7.02708L 1.52327 8.36881C 1.50849 8.37912 1.49343 8.38904 1.47812 8.39855L 1.08634 8.64168C 0.534164 8.98437 0.450419 9.75445 0.916028 10.2078L 43.2406 51.4196C 43.4273 51.6014 43.6776 51.7031 43.9382 51.7031L 63.0227 51.7031C 63.9287 51.7031 64.3677 50.5946 63.7074 49.9742Z"/>
<path id="path31_fill" d="M 0 0L 117.399 0L 117.399 163.419L 0 163.419L 0 0Z"/>
<path id="path32_fill" fill-rule="evenodd" d="M 28.5886 0.00254822L 28.5886 0L 28 0L 6.90076 0C 2.9574 0 0 2.23776 0 6.71329L 0 12.4615L 0 14.7692L 0.98584 176.308C 0.98584 178.615 2.46448 180 4.43604 180L 135.143 180C 138.057 180 138.166 177.145 138.166 177.145L 139 14L 139 6.39204C 139 2.34375 135.036 0 133.054 0C 133.054 0 70.3911 0.181351 28.5886 0.00254822ZM 122.734 14L 28.5886 14L 28 14L 16.266 14L 16.266 167.077L 122.734 167.077L 122.734 14Z"/>
<path id="path33_fill" d="M 7.8266 3.69308C 7.8266 5.73271 6.07456 7.38616 3.9133 7.38616C 1.75205 7.38616 0 5.73271 0 3.69308C 0 1.65345 1.75205 0 3.9133 0C 6.07456 0 7.8266 1.65345 7.8266 3.69308Z"/>
<path id="path34_fill" d="M 1.92003 0.908615C 1.92003 1.41043 1.49022 1.81723 0.960015 1.81723C 0.429813 1.81723 0 1.41043 0 0.908615C 0 0.406801 0.429813 0 0.960015 0C 1.49022 0 1.92003 0.406801 1.92003 0.908615Z"/>
<path id="path35_fill" d="M 0 0L 62.6129 0L 62.6129 5.53962L 0 5.53962L 0 0Z"/>
<path id="path36_fill" d="M 0 0L 17.6099 0L 17.6099 17.5421L 0 17.5421L 0 0Z"/>
<path id="path37_fill" d="M 0 0L 17.6099 0L 17.6099 17.5421L 0 17.5421L 0 0Z"/>
<path id="path38_fill" d="M 72.3961 34.161C 72.3961 53.0276 56.1897 68.322 36.1981 68.322C 16.2064 68.322 0 53.0276 0 34.161C 0 15.2944 16.2064 0 36.1981 0C 56.1897 0 72.3961 15.2944 72.3961 34.161Z"/>
<path id="path39_fill" d="M 0 9.84682L 25.467 33.3063L 47.938 7.54687C 37.5077 -1.32966 15.8502 -4.46082 0 9.84682Z"/>
<path id="path40_fill" d="M 22.5015 0L 0 25.8516L 32.2847 11.0792C 29.8389 6.46289 26.7566 3.39829 22.5015 0Z"/>
<path id="path41_fill" d="M 0 0L 241 0L 241 135L 0 135L 0 0Z"/>
<path id="path42_fill" d="M 348.611 12.6878C 348.529 12.7094 348.443 12.7206 348.358 12.7206L 9.77376 12.7206C 9.65888 12.7206 9.55072 12.7031 9.44397 12.6607C 8.25341 12.1874 0.642169 8.86262 0.0380492 1.00132C -0.00426763 0.450655 0.447715 0 1 0L 358.046 0C 358.598 0 359.037 0.44556 358.969 0.993751C 358.653 3.57617 357.023 10.4529 348.611 12.6878Z"/>
<path id="path43_fill" d="M 36.9606 5.90599L 8.16012 5.90599C 3.12321 5.90599 -4.82287e-10 2.72584 0 0L 45.1207 0C 45.1207 2.72584 42.7206 5.90599 36.9606 5.90599Z"/>
<path id="path44_fill" fill-rule="evenodd" d="M 0 159.916L 0 7.812L 0 5.51435L 0.479158 3.67623L 1.43747 2.29765L 2.39579 1.37859L 3.83326 0.459529L 5.27074 0L 6.70821 0L 260.664 0L 264.976 0L 266.893 0L 267.851 0L 268.804 0L 269.764 0.454307L 270.247 0.919059L 270.726 1.37859L 271.205 2.29765L 271.684 3.21671L 271.684 3.67623L 271.684 5.51435L 271.684 159.916L 0 159.916ZM 255.872 14.7049L 16.2931 14.7049L 16.2931 149.347L 255.872 149.347L 255.872 14.7049Z"/>
<path id="path45_fill" d="M 1.92003 0.908615C 1.92003 1.41043 1.49022 1.81723 0.960016 1.81723C 0.429814 1.81723 0 1.41043 0 0.908615C 0 0.406801 0.429814 0 0.960016 0C 1.49022 0 1.92003 0.406801 1.92003 0.908615Z"/>
<path id="path46_fill" d="M 0 0L 185.498 0L 185.498 5.36L 0 5.36L 0 0Z"/>
<path id="path47_fill" d="M 0 0L 21.992 0L 21.992 56.28L 0 56.28L 0 0Z"/>
<path id="path48_fill" d="M 0 0L 21.992 0L 21.992 46.4533L 0 46.4533L 0 0Z"/>
<path id="path49_fill" d="M 0 0L 21.992 0L 21.992 56.28L 0 56.28L 0 0Z"/>
<path id="path50_fill" d="M 0 0L 21.992 0L 21.992 35.7333L 0 35.7333L 0 0Z"/>
<path id="path51_fill" d="M 0 0L 21.992 0L 21.992 26.8L 0 26.8L 0 0Z"/>
<path id="path52_fill" d="M 0 0L 21.992 0L 21.992 43.7733L 0 43.7733L 0 0Z"/>
<path id="path53_fill" d="M 0 0L 21.992 0L 21.992 25.0133L 0 25.0133L 0 0Z"/>
<path id="path54_fill" d="M 0 0L 21.992 0L 21.992 41.0933L 0 41.0933L 0 0Z"/>
<path id="path55_fill" d="M 0 0L 21.992 0L 21.992 32.16L 0 32.16L 0 0Z"/>
<path id="path56_fill" d="M 0 0L 17.2112 0L 17.2112 16.08L 0 16.08L 0 0Z"/>
<path id="path57_fill" d="M 0 0L 17.2111 0L 17.2111 16.08L 0 16.08L 0 0Z"/>
<path id="path58_fill" d="M 0 0L 26.7729 0L 26.7729 5.36L 0 5.36L 0 0Z"/>
<path id="path59_fill" d="M 0 0L 12.4303 0L 12.4303 5.36L 0 5.36L 0 0Z"/>
<path id="path60_fill" d="M 0 0L 17.2112 0L 17.2112 4.46667L 0 4.46667L 0 0Z"/>
<path id="path61_fill" d="M 0 0L 16.255 0L 16.255 5.36L 0 5.36L 0 0Z"/>
<path id="path62_fill" d="M 0 0L 11.4741 0L 11.4741 5.36L 0 5.36L 0 0Z"/>
<path id="path63_fill" d="M 0 0L 28.6853 0L 28.6853 5.36L 0 5.36L 0 0Z"/>
<path id="path64_fill" d="M 0 0L 21.992 0L 21.992 5.36L 0 5.36L 0 0Z"/>
<path id="path65_fill" d="M 0 0L 11.4741 0L 11.4741 5.36L 0 5.36L 0 0Z"/>
<path id="path66_fill" d="M 0 0L 16.255 0L 16.255 5.36L 0 5.36L 0 0Z"/>
<path id="path67_fill" d="M 0 0L 33.4661 0L 33.4661 5.36L 0 5.36L 0 0Z"/>
</defs>
</svg>
