<svg width="223" height="124" viewBox="0 0 223 124" version="1.1" xmlns="http://www.w3.org/2000/svg" xmlns:xlink="http://www.w3.org/1999/xlink">
<title>Slice</title>
<desc>Created using Figma</desc>
<g id="Canvas" transform="translate(204 178)">
<g id="Group">
<g id="Rectangle">
<mask id="mask0_outline_ins">
<use xlink:href="#path0_fill" fill="white" transform="translate(-204 -178)"/>
</mask>
<g mask="url(#mask0_outline_ins)">
<use xlink:href="#path1_stroke_2x" transform="translate(-204 -178)" fill="#FFFFFF"/>
</g>
</g>
<g id="Line">
<use xlink:href="#path2_stroke" transform="matrix(0.999989 0.00469478 -0.00469478 0.999989 -191.995 -87.5)" fill="#FFFFFF"/>
</g>
<g id="ural">
<use xlink:href="#path3_fill" transform="translate(-192 -86.4146)" fill="#FFFFFF"/>
</g>
<g id="marketing">
<use xlink:href="#path4_fill" transform="translate(-129 -86.4146)" fill="#FFFFFF"/>
</g>
<g id="Ellipse">
<use xlink:href="#path5_fill" transform="translate(-135 -75.4146)" fill="#FFFFFF"/>
</g>
<g id="Line 2">
<use xlink:href="#path6_stroke" transform="matrix(0.624695 -0.780869 0.780869 0.624695 -195.006 -95.5318)" fill="#FFFFFF"/>
</g>
</g>
</g>
<defs>
<path id="path0_fill" d="M 0 0L 223 0L 223 124L 0 124L 0 0Z"/>
<path id="path1_stroke_2x" d="M 0 0L 0 -1L -1 -1L -1 0L 0 0ZM 223 0L 224 0L 224 -1L 223 -1L 223 0ZM 223 124L 223 125L 224 125L 224 124L 223 124ZM 0 124L -1 124L -1 125L 0 125L 0 124ZM 0 1L 223 1L 223 -1L 0 -1L 0 1ZM 222 0L 222 124L 224 124L 224 0L 222 0ZM 223 123L 0 123L 0 125L 223 125L 223 123ZM 1 124L 1 0L -1 0L -1 124L 1 124Z"/>
<path id="path2_stroke" d="M -0.00538067 0.999986L 198.496 2.06807L 198.507 0.0681031L 0.00538067 -0.999986L -0.00538067 0.999986Z"/>
<path id="path3_fill" d="M 13.9922 4.9375L 13.9922 16.5391C 13.9844 18.1484 13.4766 19.4648 12.4688 20.4883C 11.4688 21.5117 10.1094 22.0859 8.39062 22.2109L 7.79297 22.2344C 5.92578 22.2344 4.4375 21.7305 3.32812 20.7227C 2.21875 19.7148 1.65625 18.3281 1.64062 16.5625L 1.64062 4.9375L 3.86719 4.9375L 3.86719 16.4922C 3.86719 17.7266 4.20703 18.6875 4.88672 19.375C 5.56641 20.0547 6.53516 20.3945 7.79297 20.3945C 9.06641 20.3945 10.0391 20.0547 10.7109 19.375C 11.3906 18.6953 11.7305 17.7383 11.7305 16.5039L 11.7305 4.9375L 13.9922 4.9375ZM 23.8008 15.0977L 19.793 15.0977L 19.793 22L 17.5312 22L 17.5312 4.9375L 23.1797 4.9375C 25.1016 4.9375 26.5781 5.375 27.6094 6.25C 28.6484 7.125 29.168 8.39844 29.168 10.0703C 29.168 11.1328 28.8789 12.0586 28.3008 12.8477C 27.7305 13.6367 26.9336 14.2266 25.9102 14.6172L 29.918 21.8594L 29.918 22L 27.5039 22L 23.8008 15.0977ZM 19.793 13.2578L 23.25 13.2578C 24.3672 13.2578 25.2539 12.9688 25.9102 12.3906C 26.5742 11.8125 26.9062 11.0391 26.9062 10.0703C 26.9062 9.01562 26.5898 8.20703 25.957 7.64453C 25.332 7.08203 24.4258 6.79688 23.2383 6.78906L 19.793 6.78906L 19.793 13.2578ZM 41.7539 17.5469L 34.6055 17.5469L 33 22L 30.6797 22L 37.1953 4.9375L 39.1641 4.9375L 45.6914 22L 43.3828 22L 41.7539 17.5469ZM 35.2852 15.6953L 41.0859 15.6953L 38.1797 7.71484L 35.2852 15.6953ZM 50.25 20.1602L 58.3359 20.1602L 58.3359 22L 47.9883 22L 47.9883 4.9375L 50.25 4.9375L 50.25 20.1602Z"/>
<path id="path4_fill" d="M 4.88672 4.9375L 10.4648 18.8594L 16.043 4.9375L 18.9609 4.9375L 18.9609 22L 16.7109 22L 16.7109 15.3555L 16.9219 8.18359L 11.3203 22L 9.59766 22L 4.00781 8.21875L 4.23047 15.3555L 4.23047 22L 1.98047 22L 1.98047 4.9375L 4.88672 4.9375ZM 32.5664 17.5469L 25.418 17.5469L 23.8125 22L 21.4922 22L 28.0078 4.9375L 29.9766 4.9375L 36.5039 22L 34.1953 22L 32.5664 17.5469ZM 26.0977 15.6953L 31.8984 15.6953L 28.9922 7.71484L 26.0977 15.6953ZM 45.0586 15.0977L 41.0508 15.0977L 41.0508 22L 38.7891 22L 38.7891 4.9375L 44.4375 4.9375C 46.3594 4.9375 47.8359 5.375 48.8672 6.25C 49.9062 7.125 50.4258 8.39844 50.4258 10.0703C 50.4258 11.1328 50.1367 12.0586 49.5586 12.8477C 48.9883 13.6367 48.1914 14.2266 47.168 14.6172L 51.1758 21.8594L 51.1758 22L 48.7617 22L 45.0586 15.0977ZM 41.0508 13.2578L 44.5078 13.2578C 45.625 13.2578 46.5117 12.9688 47.168 12.3906C 47.832 11.8125 48.1641 11.0391 48.1641 10.0703C 48.1641 9.01562 47.8477 8.20703 47.2148 7.64453C 46.5898 7.08203 45.6836 6.79688 44.4961 6.78906L 41.0508 6.78906L 41.0508 13.2578ZM 57.9258 14.0664L 55.8398 16.2344L 55.8398 22L 53.5898 22L 53.5898 4.9375L 55.8398 4.9375L 55.8398 13.375L 63.4219 4.9375L 66.1406 4.9375L 59.4258 12.4727L 66.668 22L 63.9727 22L 57.9258 14.0664ZM 78.2812 14.1133L 70.8867 14.1133L 70.8867 20.1602L 79.4766 20.1602L 79.4766 22L 68.6367 22L 68.6367 4.9375L 79.3594 4.9375L 79.3594 6.78906L 70.8867 6.78906L 70.8867 12.2734L 78.2812 12.2734L 78.2812 14.1133ZM 94.3008 6.78906L 88.8164 6.78906L 88.8164 22L 86.5781 22L 86.5781 6.78906L 81.1055 6.78906L 81.1055 4.9375L 94.3008 4.9375L 94.3008 6.78906ZM 99.2461 22L 96.9961 22L 96.9961 4.9375L 99.2461 4.9375L 99.2461 22ZM 116.484 22L 114.223 22L 105.633 8.85156L 105.633 22L 103.371 22L 103.371 4.9375L 105.633 4.9375L 114.246 18.1445L 114.246 4.9375L 116.484 4.9375L 116.484 22ZM 133.078 19.7617C 132.5 20.5898 131.691 21.2109 130.652 21.625C 129.621 22.0312 128.418 22.2344 127.043 22.2344C 125.652 22.2344 124.418 21.9102 123.34 21.2617C 122.262 20.6055 121.426 19.6758 120.832 18.4727C 120.246 17.2695 119.945 15.875 119.93 14.2891L 119.93 12.8008C 119.93 10.2305 120.527 8.23828 121.723 6.82422C 122.926 5.41016 124.613 4.70312 126.785 4.70312C 128.566 4.70312 130 5.16016 131.086 6.07422C 132.172 6.98047 132.836 8.26953 133.078 9.94141L 130.828 9.94141C 130.406 7.68359 129.062 6.55469 126.797 6.55469C 125.289 6.55469 124.145 7.08594 123.363 8.14844C 122.59 9.20312 122.199 10.7344 122.191 12.7422L 122.191 14.1367C 122.191 16.0508 122.629 17.5742 123.504 18.707C 124.379 19.832 125.562 20.3945 127.055 20.3945C 127.898 20.3945 128.637 20.3008 129.27 20.1133C 129.902 19.9258 130.426 19.6094 130.84 19.1641L 130.84 15.332L 126.891 15.332L 126.891 13.5039L 133.078 13.5039L 133.078 19.7617Z"/>
<path id="path5_fill" d="M 4 2C 4 3.10457 3.10457 4 2 4C 0.895431 4 0 3.10457 0 2C 0 0.895431 0.895431 0 2 0C 3.10457 0 4 0.895431 4 2Z"/>
<path id="path6_stroke" d="M 40.8299 0L 41.8046 0.223814L 42.1196 -1.14784L 40.7206 -0.994008L 40.8299 0ZM 30.9226 43.1431L 29.9479 42.9193L 29.6186 44.3536L 31.0734 44.1317L 30.9226 43.1431ZM 96.1935 33.1869L 97.134 33.5269L 97.7059 31.9447L 96.0427 32.1984L 96.1935 33.1869ZM 73.4017 96.242L 72.4612 95.9021L 71.9048 97.4413L 73.5283 97.2339L 73.4017 96.242ZM 159.12 85.2954L 160.017 85.7382L 160.842 84.0675L 158.993 84.3035L 159.12 85.2954ZM 0.109308 5.48393L 40.9393 0.994008L 40.7206 -0.994008L -0.109308 3.49592L 0.109308 5.48393ZM 39.8553 -0.223814L 29.9479 42.9193L 31.8972 43.3669L 41.8046 0.223814L 39.8553 -0.223814ZM 31.0734 44.1317L 96.3443 34.1755L 96.0427 32.1984L 30.7718 42.1545L 31.0734 44.1317ZM 95.2531 32.847L 72.4612 95.9021L 74.3421 96.5819L 97.134 33.5269L 95.2531 32.847ZM 73.5283 97.2339L 159.247 86.2874L 158.993 84.3035L 73.275 95.2501L 73.5283 97.2339ZM 158.223 84.8527L 122.168 157.878L 123.962 158.764L 160.017 85.7382L 158.223 84.8527Z"/>
</defs>
</svg>
