<svg width="242" height="129" viewBox="0 0 242 129" version="1.1" xmlns="http://www.w3.org/2000/svg" xmlns:xlink="http://www.w3.org/1999/xlink">
<title>Slice</title>
<desc>Created using Figma</desc>
<g id="Canvas" transform="translate(212 190)">
<g id="Group">
<g id="Line">
<use xlink:href="#path0_stroke" transform="matrix(0.999989 0.00469478 -0.00469478 0.999989 -202.995 -98.5585)" fill="#FFFFFF"/>
</g>
<g id="ural">
<use xlink:href="#path1_fill" transform="translate(-207 -96.9999)" fill="#FFFFFF"/>
</g>
<g id="marketing">
<use xlink:href="#path2_fill" transform="translate(-131.591 -96.9999)" fill="#FFFFFF"/>
</g>
<g id="Ellipse">
<use xlink:href="#path3_fill" transform="translate(-138 -84)" fill="#FFFFFF"/>
</g>
<g id="Line 2">
<use xlink:href="#path4_stroke" transform="matrix(0.624695 -0.780869 0.780869 0.624695 -195.686 -104.754)" fill="#FFFFFF"/>
</g>
</g>
</g>
<defs>
<path id="path0_stroke" d="M 0.00469473 2.05865L 225.502 0.999989L 225.493 -0.999989L -0.00469473 0.0586733L 0.00469473 2.05865Z"/>
<path id="path1_fill" d="M 16.584 6.09375L 16.584 19.3965C 16.584 21.5111 15.9049 23.1882 14.5469 24.4277C 13.1979 25.6582 11.3978 26.2734 9.14648 26.2734C 6.86784 26.2734 5.05859 25.6673 3.71875 24.4551C 2.37891 23.2337 1.70898 21.543 1.70898 19.3828L 1.70898 6.09375L 5.1543 6.09375L 5.1543 19.4102C 5.1543 20.7409 5.49154 21.7572 6.16602 22.459C 6.84049 23.1608 7.83398 23.5117 9.14648 23.5117C 11.8079 23.5117 13.1387 22.1081 13.1387 19.3008L 13.1387 6.09375L 16.584 6.09375ZM 27.6035 18.3301L 23.748 18.3301L 23.748 26L 20.2891 26L 20.2891 6.09375L 27.2891 6.09375C 29.5859 6.09375 31.3587 6.60872 32.6074 7.63867C 33.8561 8.66862 34.4805 10.1589 34.4805 12.1094C 34.4805 13.4401 34.1569 14.5566 33.5098 15.459C 32.8717 16.3522 31.9785 17.0404 30.8301 17.5234L 35.3008 25.8223L 35.3008 26L 31.5957 26L 27.6035 18.3301ZM 23.748 15.5547L 27.3027 15.5547C 28.4694 15.5547 29.3809 15.263 30.0371 14.6797C 30.6934 14.0872 31.0215 13.2806 31.0215 12.2598C 31.0215 11.1934 30.7161 10.3685 30.1055 9.78516C 29.5039 9.20182 28.6016 8.90104 27.3984 8.88281L 23.748 8.88281L 23.748 15.5547ZM 48.9043 21.3652L 41.1934 21.3652L 39.5801 26L 35.9844 26L 43.5039 6.09375L 46.6074 6.09375L 54.1406 26L 50.5312 26L 48.9043 21.3652ZM 42.1641 18.5762L 47.9336 18.5762L 45.0488 10.3184L 42.1641 18.5762ZM 59.8691 23.2383L 68.9062 23.2383L 68.9062 26L 56.4102 26L 56.4102 6.09375L 59.8691 6.09375L 59.8691 23.2383Z"/>
<path id="path2_fill" d="M 6.50781 6.09375L 12.25 21.3516L 17.9785 6.09375L 22.4492 6.09375L 22.4492 26L 19.0039 26L 19.0039 19.4375L 19.3457 10.6602L 13.4668 26L 10.9922 26L 5.12695 10.6738L 5.46875 19.4375L 5.46875 26L 2.02344 26L 2.02344 6.09375L 6.50781 6.09375ZM 37.9395 21.3652L 30.2285 21.3652L 28.6152 26L 25.0195 26L 32.5391 6.09375L 35.6426 6.09375L 43.1758 26L 39.5664 26L 37.9395 21.3652ZM 31.1992 18.5762L 36.9688 18.5762L 34.084 10.3184L 31.1992 18.5762ZM 52.7598 18.3301L 48.9043 18.3301L 48.9043 26L 45.4453 26L 45.4453 6.09375L 52.4453 6.09375C 54.7422 6.09375 56.515 6.60872 57.7637 7.63867C 59.0124 8.66862 59.6367 10.1589 59.6367 12.1094C 59.6367 13.4401 59.3132 14.5566 58.666 15.459C 58.028 16.3522 57.1348 17.0404 55.9863 17.5234L 60.457 25.8223L 60.457 26L 56.752 26L 52.7598 18.3301ZM 48.9043 15.5547L 52.459 15.5547C 53.6257 15.5547 54.5371 15.263 55.1934 14.6797C 55.8496 14.0872 56.1777 13.2806 56.1777 12.2598C 56.1777 11.1934 55.8724 10.3685 55.2617 9.78516C 54.6602 9.20182 53.7578 8.90104 52.5547 8.88281L 48.9043 8.88281L 48.9043 15.5547ZM 68.6328 17.4004L 66.377 19.793L 66.377 26L 62.918 26L 62.918 6.09375L 66.377 6.09375L 66.377 15.4316L 68.291 13.0664L 74.1152 6.09375L 78.2988 6.09375L 70.9023 14.9121L 78.7227 26L 74.6211 26L 68.6328 17.4004ZM 92.2168 17.1133L 84.041 17.1133L 84.041 23.2383L 93.5977 23.2383L 93.5977 26L 80.582 26L 80.582 6.09375L 93.502 6.09375L 93.502 8.88281L 84.041 8.88281L 84.041 14.3789L 92.2168 14.3789L 92.2168 17.1133ZM 111.07 8.88281L 104.863 8.88281L 104.863 26L 101.432 26L 101.432 8.88281L 95.2793 8.88281L 95.2793 6.09375L 111.07 6.09375L 111.07 8.88281ZM 117.346 26L 113.9 26L 113.9 6.09375L 117.346 6.09375L 117.346 26ZM 137.389 26L 133.93 26L 125.057 11.877L 125.057 26L 121.598 26L 121.598 6.09375L 125.057 6.09375L 133.957 20.2715L 133.957 6.09375L 137.389 6.09375L 137.389 26ZM 156.734 23.416C 156.014 24.3548 155.016 25.0658 153.74 25.5488C 152.464 26.0319 151.015 26.2734 149.393 26.2734C 147.725 26.2734 146.248 25.8952 144.963 25.1387C 143.678 24.3822 142.684 23.3021 141.982 21.8984C 141.29 20.4857 140.93 18.8405 140.902 16.9629L 140.902 15.4043C 140.902 12.3965 141.622 10.0495 143.062 8.36328C 144.503 6.66797 146.512 5.82031 149.092 5.82031C 151.307 5.82031 153.066 6.36719 154.369 7.46094C 155.673 8.55469 156.456 10.1315 156.721 12.1914L 153.33 12.1914C 152.947 9.79427 151.557 8.5957 149.16 8.5957C 147.611 8.5957 146.43 9.15625 145.619 10.2773C 144.817 11.3893 144.402 13.0254 144.375 15.1855L 144.375 16.7168C 144.375 18.8678 144.826 20.5404 145.729 21.7344C 146.64 22.9193 147.902 23.5117 149.516 23.5117C 151.284 23.5117 152.542 23.1107 153.289 22.3086L 153.289 18.4121L 149.188 18.4121L 149.188 15.7871L 156.734 15.7871L 156.734 23.416Z"/>
<path id="path3_fill" d="M 4.54545 2.30769C 4.54545 3.5822 3.52792 4.61538 2.27273 4.61538C 1.01753 4.61538 0 3.5822 0 2.30769C 0 1.03319 1.01753 0 2.27273 0C 3.52792 0 4.54545 1.03319 4.54545 2.30769Z"/>
<path id="path4_stroke" d="M 45.8831 0L 46.8489 0.259428L 47.2081 -1.07762L 45.8259 -0.99836L 45.8831 0ZM 34.4722 42.4791L 33.5064 42.2197L 33.1422 43.5756L 34.5427 43.4766L 34.4722 42.4791ZM 100.082 37.8418L 101.015 38.2002L 101.578 36.7336L 100.011 36.8443L 100.082 37.8418ZM 77.2184 97.4066L 76.2848 97.0483L 75.6965 98.5808L 77.3282 98.4006L 77.2184 97.4066ZM 165.228 87.6834L 166.117 88.1408L 166.969 86.4849L 165.118 86.6894L 165.228 87.6834ZM 0.0572515 3.62955L 45.9404 0.99836L 45.8259 -0.99836L -0.0572515 1.63283L 0.0572515 3.62955ZM 44.9174 -0.259428L 33.5064 42.2197L 35.438 42.7386L 46.8489 0.259428L 44.9174 -0.259428ZM 34.5427 43.4766L 100.152 38.8393L 100.011 36.8443L 34.4017 41.4816L 34.5427 43.4766ZM 99.1482 37.4835L 76.2848 97.0483L 78.152 97.765L 101.015 38.2002L 99.1482 37.4835ZM 77.3282 98.4006L 165.338 88.6773L 165.118 86.6894L 77.1086 96.4127L 77.3282 98.4006ZM 164.339 87.226L 126.305 161.166L 128.083 162.081L 166.117 88.1408L 164.339 87.226Z"/>
</defs>
</svg>
